<svg width="32" height="32" viewBox="0 0 2000 2000" xmlns="http://www.w3.org/2000/svg">

<g transform="translate(0.000000,2000.000000) scale(0.100000,-0.100000)"
fill="#000000" stroke="none">
<path d="M300 19986 c-116 -33 -211 -113 -263 -224 l-32 -67 -3 -9660 c-2
-7353 0 -9673 9 -9715 26 -124 109 -227 227 -283 l67 -32 9660 -3 c7353 -2
9673 0 9715 9 124 26 227 109 283 227 l32 67 3 9660 c2 7353 0 9673 -9 9715
-26 124 -109 227 -227 283 l-67 32 -9675 2 c-7728 1 -9684 -1 -9720 -11z
m2664 -2541 c3 -38 8 -189 11 -335 3 -146 8 -318 11 -382 l6 -117 31 -12 c128
-53 173 -224 85 -325 l-30 -34 118 -265 118 -264 276 -276 275 -275 45 16 c58
20 114 12 172 -25 56 -36 87 -85 95 -150 l6 -50 366 -149 c359 -147 366 -150
386 -131 53 48 151 62 225 33 22 -9 57 -36 78 -60 l38 -44 284 25 c365 33 345
29 360 66 19 46 48 78 89 98 88 45 171 35 245 -30 l43 -38 429 99 c236 55 436
104 443 108 8 5 18 21 22 36 11 40 47 89 85 116 98 67 226 38 297 -68 l28 -42
494 0 494 0 23 42 c83 151 324 127 378 -37 6 -19 15 -35 19 -35 4 0 375 -56
825 -125 l818 -125 45 39 c55 49 127 69 189 52 84 -23 148 -88 161 -163 4 -28
13 -43 32 -52 14 -8 417 -179 895 -381 696 -294 873 -365 885 -356 105 74 223
68 303 -16 51 -53 71 -137 48 -197 -9 -25 4 -39 262 -280 245 -230 273 -254
292 -244 12 6 46 11 77 11 71 0 132 -32 174 -91 28 -41 30 -50 30 -128 l-1
-84 335 -313 c209 -195 340 -311 350 -308 9 2 44 6 77 8 49 4 70 0 102 -16 84
-43 135 -146 113 -227 -6 -22 -11 -44 -11 -51 0 -20 813 -858 830 -855 94 15
109 14 164 -11 103 -47 147 -157 108 -264 l-21 -57 328 -490 c553 -826 543
-811 570 -808 68 10 165 -48 201 -119 25 -49 26 -130 1 -185 -22 -49 -84 -102
-128 -110 -23 -4 -35 -13 -38 -28 -3 -11 -11 -51 -19 -88 l-13 -66 28 -21 c88
-65 97 -220 18 -306 -18 -20 -16 -28 125 -410 l143 -390 34 -6 c83 -14 151
-79 170 -163 14 -63 2 -116 -40 -173 -35 -49 -88 -75 -162 -81 l-57 -4 -106
-169 -107 -168 15 -46 c19 -54 20 -85 5 -136 -37 -122 -177 -183 -295 -127
-44 20 -96 77 -109 117 -4 14 -99 42 -433 129 -235 62 -435 112 -444 112 -10
0 -18 -4 -18 -10 0 -16 -76 -61 -121 -71 -105 -24 -224 52 -249 158 -16 70 6
148 55 197 l34 34 -67 279 c-58 240 -70 278 -86 278 -14 0 -54 -61 -152 -234
l-134 -233 21 -34 c12 -20 23 -58 26 -92 15 -184 -199 -298 -340 -181 -58 47
-80 99 -74 173 3 33 8 72 11 86 6 22 -34 76 -314 425 l-321 400 -68 1 c-52 1
-78 6 -111 25 -127 70 -148 246 -40 343 37 33 91 56 135 56 17 0 40 48 141
291 l122 292 -31 43 c-20 28 -31 59 -35 91 l-5 48 -186 88 c-102 48 -189 87
-193 87 -4 0 -23 -11 -42 -24 -73 -49 -187 -38 -252 25 l-32 31 -186 -52
c-159 -45 -186 -55 -186 -72 0 -27 -27 -78 -61 -113 l-29 -31 182 -745 182
-746 42 -11 c77 -21 126 -79 148 -175 l11 -49 224 -92 224 -93 35 23 c73 50
151 54 227 11 84 -47 123 -151 95 -252 l-12 -44 202 -288 c111 -158 204 -292
206 -298 2 -5 -10 -34 -26 -63 l-30 -52 -585 0 c-351 0 -585 -4 -585 -9 0 -20
-56 -75 -95 -92 -152 -70 -323 56 -301 222 l6 46 -251 274 c-138 151 -261 284
-273 296 -19 21 -25 22 -61 12 -85 -24 -192 27 -235 112 -37 72 -23 175 32
236 l20 22 -267 718 c-147 395 -270 724 -273 731 -2 6 -16 12 -31 12 -14 0
-50 11 -78 25 -131 61 -159 231 -56 337 l37 38 -39 177 -40 176 -44 15 c-24 8
-61 32 -82 53 l-38 38 -79 -15 c-77 -16 -79 -17 -92 -53 -21 -59 -47 -88 -104
-116 -41 -20 -67 -26 -105 -24 l-51 3 -265 -366 -265 -366 20 -43 c51 -114
-12 -259 -127 -294 -28 -8 -26 11 -63 -520 -16 -236 -32 -455 -35 -485 -5 -55
-5 -55 34 -82 46 -31 79 -88 87 -152 l6 -44 256 -121 256 -122 50 28 c110 60
241 21 297 -89 27 -54 25 -141 -4 -194 l-24 -40 124 -216 124 -216 -29 -49
-28 -48 -613 -5 -612 -5 -22 -40 c-81 -143 -307 -127 -372 27 -19 48 -19 131
1 169 l15 30 -240 417 -239 417 -59 5 c-128 12 -198 93 -191 220 5 88 36 138
107 171 36 17 51 31 55 49 3 14 40 292 82 618 l77 594 -38 31 c-133 110 -80
330 89 368 l51 11 194 521 c152 410 191 524 182 537 -27 38 -45 79 -56 125
l-11 50 -485 232 c-266 127 -538 257 -605 288 l-121 57 -38 -26 c-21 -14 -46
-26 -56 -26 -13 0 -20 -10 -24 -32 -3 -18 -37 -216 -74 -441 l-68 -407 33 -25
c90 -69 98 -222 16 -308 -37 -39 -77 -59 -136 -66 l-50 -6 -228 -435 -228
-435 25 -46 c42 -79 30 -186 -30 -249 l-23 -25 196 -608 c186 -572 198 -608
222 -613 95 -19 169 -95 178 -183 l5 -51 174 -85 174 -84 46 24 c138 74 314
-29 313 -182 -1 -46 -22 -107 -45 -133 -17 -18 -14 -27 58 -187 l75 -167 -32
-48 -31 -48 -407 0 -407 0 -23 -42 c-81 -146 -314 -128 -374 29 -13 32 -15 60
-11 108 l6 64 -252 243 -252 244 -70 -4 c-59 -3 -77 0 -115 20 -108 58 -144
201 -76 301 l24 35 -218 628 -218 628 -50 16 c-68 22 -97 43 -129 91 -34 52
-42 132 -19 194 28 72 114 134 186 135 11 0 50 95 132 315 l117 315 -35 51
c-30 45 -34 59 -34 114 0 47 6 73 25 109 l25 47 -183 353 -182 354 -55 5 c-30
3 -55 5 -55 4 -1 -1 -106 -127 -234 -279 l-232 -278 16 -47 c19 -55 14 -106
-14 -161 -48 -94 -151 -134 -261 -101 l-38 12 -348 -294 -348 -294 3 -67 c2
-70 -11 -111 -53 -156 -23 -26 -87 -62 -108 -62 -10 0 -33 -100 -81 -350 l-68
-350 31 -26 c40 -34 61 -77 69 -139 l6 -50 285 -148 285 -148 33 15 c145 69
311 -29 312 -184 0 -41 -29 -116 -61 -161 -9 -12 1 -52 45 -188 l57 -173 -27
-39 c-14 -21 -31 -43 -38 -48 -7 -5 -239 -6 -586 0 -331 4 -576 4 -578 -1 -12
-33 -67 -91 -104 -109 -157 -76 -344 71 -300 235 7 26 21 59 31 73 l18 26
-260 463 -261 462 -38 0 c-77 0 -151 48 -190 124 -30 59 -22 151 18 208 33 48
95 88 136 88 17 0 29 7 32 18 3 9 62 203 131 430 l126 414 -35 38 c-73 82 -64
213 21 291 54 50 123 68 193 49 l43 -12 304 304 c210 209 301 308 297 318 -51
127 53 288 186 290 l35 0 162 332 c145 294 161 333 148 348 -24 27 -45 87 -45
132 0 61 40 142 85 170 33 21 36 26 31 58 -2 19 -15 139 -27 265 l-23 230 -50
25 c-157 79 -145 299 19 379 l40 19 66 474 66 473 -37 32 c-33 28 -46 51 -77
133 -9 22 -42 35 -314 122 l-303 97 -37 -33 c-99 -90 -260 -56 -327 68 -10 20
-16 56 -17 100 l0 69 -490 390 c-269 214 -499 395 -510 403 -17 11 -27 11 -60
-1 -60 -21 -106 -18 -166 13 -105 53 -146 163 -100 267 11 26 21 53 21 59 0 6
-49 91 -108 190 l-107 178 -49 4 c-146 11 -238 165 -176 297 12 26 36 59 53
73 l30 25 -51 310 -50 310 64 357 c35 196 67 368 70 382 3 13 55 75 116 136
l110 112 58 -21 59 -22 5 -70z m2900 -12295 c106 -27 169 -63 249 -141 73 -73
122 -162 154 -279 24 -90 24 -319 0 -410 -58 -217 -206 -374 -403 -425 -76
-20 -251 -20 -329 0 -205 52 -352 207 -405 426 -25 106 -27 288 -4 392 49 224
205 392 410 441 89 22 236 20 328 -4z m1615 5 c210 -50 359 -202 418 -425 24
-91 24 -320 -1 -410 -60 -220 -205 -374 -403 -425 -75 -20 -251 -20 -328 0
-208 53 -364 220 -410 440 -19 90 -19 290 0 379 47 221 205 390 411 440 79 19
234 19 313 1z m4901 -13 c178 -63 297 -185 357 -366 25 -74 27 -94 28 -246 0
-156 -2 -170 -29 -254 -66 -201 -199 -331 -391 -381 -77 -20 -252 -20 -329 0
-193 51 -345 205 -401 410 -26 93 -31 284 -11 386 47 238 208 417 419 465 89
20 284 12 357 -14z m1062 -409 c4 -407 5 -431 26 -493 28 -83 68 -132 140
-167 52 -26 67 -28 167 -28 94 0 117 3 160 23 92 42 143 113 164 227 7 36 11
214 11 462 l0 403 90 0 90 0 0 -438 c0 -360 -3 -448 -15 -497 -46 -179 -150
-285 -326 -330 -98 -26 -311 -17 -400 17 -128 48 -213 133 -261 263 -22 58
-22 72 -26 523 l-3 462 90 0 89 0 4 -427z m-10277 403 c108 -28 176 -77 220
-158 23 -43 30 -68 33 -134 4 -72 1 -88 -23 -141 -30 -67 -70 -111 -129 -140
l-39 -20 54 -25 c63 -29 111 -73 142 -132 19 -35 22 -57 22 -147 0 -98 -2
-110 -30 -164 -37 -73 -104 -127 -195 -157 -61 -21 -87 -22 -402 -26 l-338 -3
0 630 0 631 318 0 c232 0 330 -4 367 -14z m985 -536 l0 -550 310 0 310 0 0
-80 0 -80 -405 0 -405 0 0 630 0 630 95 0 95 0 0 -550z m4924 530 c212 -54
345 -175 407 -370 29 -91 37 -306 15 -410 -46 -220 -190 -372 -411 -435 -49
-14 -117 -19 -367 -22 l-308 -5 0 631 0 631 293 0 c260 0 303 -2 371 -20z
m1126 -250 l0 -270 350 0 350 0 0 270 0 270 95 0 95 0 0 -630 0 -630 -95 0
-95 0 0 280 0 280 -350 0 -350 0 0 -280 0 -280 -95 0 -95 0 0 630 0 630 95 0
95 0 0 -270z m5140 -202 l355 -470 3 471 2 471 85 0 85 0 0 -630 0 -630 -68 0
-68 0 -359 474 -360 474 -3 -474 -2 -474 -90 0 -90 0 0 630 0 630 78 -1 77 0
355 -471z m1794 439 c106 -37 160 -70 227 -138 101 -102 146 -223 156 -414 17
-344 -136 -575 -428 -651 -51 -13 -127 -18 -366 -21 l-303 -5 0 632 0 631 318
-3 c317 -3 317 -3 396 -31z m-3230 -1766 c33 -11 77 -32 98 -46 l38 -25 -21
-52 c-11 -29 -22 -55 -25 -59 -2 -4 -35 9 -74 29 -128 65 -296 54 -346 -24
-25 -37 -24 -96 1 -124 26 -29 46 -36 196 -70 140 -31 213 -63 252 -110 99
-117 33 -308 -129 -370 -79 -30 -214 -37 -311 -17 -84 18 -203 72 -203 92 0
12 37 105 45 113 1 2 27 -9 57 -24 75 -38 141 -54 228 -54 129 0 185 29 197
103 5 32 1 41 -28 70 -30 30 -48 36 -164 61 -247 53 -318 111 -319 261 -1 131
80 223 229 262 70 18 206 10 279 -16z m-8406 -48 l3 -63 -221 0 -220 0 0 -120
0 -120 203 -2 202 -3 3 -62 3 -63 -206 0 -205 0 0 -130 0 -130 220 0 221 0 -3
-62 -3 -63 -292 -3 -293 -2 0 445 0 445 293 -2 292 -3 3 -62z m812 -238 l235
-305 3 305 2 305 75 0 75 0 0 -445 0 -445 -59 0 -59 0 -233 304 -234 304 -5
-302 -5 -301 -75 0 -75 0 -3 430 c-1 237 0 436 3 443 3 8 25 12 62 12 l58 0
235 -305z m1560 235 l0 -70 -150 0 -150 0 0 -375 0 -375 -80 0 -80 0 0 375 0
375 -155 0 -155 0 0 70 0 70 385 0 385 0 0 -70z m990 5 l0 -65 -215 0 -215 0
0 -120 0 -120 200 0 200 0 0 -65 0 -65 -200 0 -200 0 0 -130 0 -130 215 0 215
0 0 -65 0 -65 -295 0 -295 0 0 445 0 445 295 0 295 0 0 -65z m995 37 c71 -32
123 -86 140 -146 40 -135 -5 -263 -112 -317 -26 -13 -50 -25 -52 -26 -2 -1 13
-16 33 -33 22 -20 65 -87 116 -180 44 -82 80 -151 80 -154 0 -3 -38 -6 -85 -6
-83 0 -86 1 -101 28 -9 15 -48 85 -87 156 -40 72 -84 139 -100 150 -23 17 -43
21 -115 21 l-87 0 -3 -177 -2 -178 -80 0 -80 0 0 446 0 446 243 -4 c227 -3
245 -5 292 -26z m1160 0 c60 -28 100 -64 128 -117 18 -32 22 -57 22 -130 0
-78 -4 -98 -26 -140 -28 -55 -90 -108 -147 -125 -20 -7 -108 -14 -194 -17
l-158 -6 0 -163 0 -164 -80 0 -80 0 0 446 0 446 243 -4 c227 -3 245 -5 292
-26z m1120 0 c106 -49 150 -117 150 -237 0 -70 -4 -87 -29 -133 -30 -54 -102
-112 -139 -112 -16 0 -11 -8 22 -37 27 -26 67 -87 121 -185 44 -81 80 -150 80
-153 0 -11 -169 -5 -177 7 -4 7 -44 77 -88 157 -44 80 -92 153 -107 164 -22
16 -44 20 -115 21 l-88 1 -3 -177 -2 -178 -80 0 -80 0 0 446 0 446 243 -4
c227 -3 245 -5 292 -26z m785 -417 l0 -445 -80 0 -80 0 0 445 0 445 80 0 80 0
0 -445z m2170 380 l0 -65 -215 0 -215 0 0 -120 0 -120 203 -2 202 -3 3 -62 3
-63 -206 0 -205 0 0 -130 0 -130 215 0 215 0 0 -65 0 -65 -290 0 -290 0 0 445
0 445 290 0 290 0 0 -65z"/>
<path d="M2789 17303 l-36 -38 -58 -323 c-32 -178 -58 -330 -59 -339 -1 -10
22 -26 68 -45 68 -29 68 -29 87 -10 10 11 27 27 38 34 20 14 20 21 10 329 -5
173 -10 340 -12 372 l-2 58 -36 -38z"/>
<path d="M2645 16458 c2 -12 21 -120 40 -238 20 -118 37 -215 39 -217 1 -1 21
50 44 114 l41 115 -24 32 c-34 45 -55 99 -55 144 0 35 -3 39 -37 52 -21 8 -42
16 -46 18 -4 2 -5 -7 -2 -20z"/>
<path d="M2851 16069 l-43 -121 24 -22 c38 -33 50 -53 63 -104 l12 -47 114
-17 c62 -9 115 -15 117 -13 2 2 -40 103 -94 224 -91 206 -100 221 -124 221
-24 0 -29 -8 -69 -121z"/>
<path d="M2868 15653 l-16 -28 107 -180 107 -180 57 -7 c31 -4 70 -14 86 -23
38 -19 92 -83 106 -126 l12 -34 214 -21 c118 -11 218 -17 224 -12 6 5 -108
126 -284 302 l-293 293 -116 17 c-65 9 -133 19 -152 22 -31 5 -37 2 -52 -23z"/>
<path d="M3330 14967 c19 -19 930 -740 949 -751 7 -5 -50 117 -128 271 l-142
279 -30 -4 c-39 -6 -112 23 -154 60 -19 16 -41 49 -51 73 -11 29 -23 45 -34
45 -19 0 -295 26 -375 35 -44 5 -48 4 -35 -8z"/>
<path d="M7585 14809 c-4 -11 -24 -37 -45 -58 l-37 -36 166 -558 167 -559 53
-18 c29 -9 68 -32 86 -50 l34 -33 290 118 291 118 0 37 c0 76 50 154 121 185
l42 19 -6 255 c-4 140 -7 302 -7 361 l0 107 -41 18 c-41 19 -99 79 -99 102 0
10 -103 13 -504 13 -504 0 -505 0 -511 -21z"/>
<path d="M4105 14811 c-3 -6 63 -147 147 -315 l153 -306 45 0 c25 0 65 -9 88
-20 51 -23 25 -39 220 129 104 90 130 117 123 130 -5 9 -12 34 -15 56 l-7 40
-362 148 c-200 81 -368 147 -374 147 -7 0 -14 -4 -18 -9z"/>
<path d="M8945 14763 c-16 -20 -47 -44 -68 -53 l-39 -18 1 -313 c1 -173 4
-335 7 -361 6 -41 10 -48 38 -58 17 -6 45 -24 62 -41 l32 -31 811 328 c446
181 807 331 803 335 -6 5 -1598 251 -1612 248 -3 0 -18 -17 -35 -36z"/>
<path d="M6780 14689 c-493 -115 -460 -106 -460 -125 0 -29 -40 -92 -77 -123
-47 -39 -127 -58 -174 -42 -18 6 -36 8 -39 4 -4 -5 -98 -140 -210 -302 l-202
-293 23 -42 c24 -42 32 -124 17 -176 -7 -23 16 -44 355 -312 357 -282 362
-286 382 -267 29 26 89 49 128 49 50 0 118 -27 152 -60 l31 -30 454 184 455
184 -3 31 c-6 51 25 126 67 164 21 19 44 36 51 39 8 2 -31 146 -133 488 -80
267 -155 517 -166 556 l-21 71 -43 7 c-50 8 -122 48 -137 76 -6 11 -14 20 -18
19 -4 0 -198 -45 -432 -100z"/>
<path d="M5615 14489 c-159 -15 -300 -28 -311 -28 -14 -1 -26 -12 -35 -32 -7
-18 -24 -45 -37 -61 l-25 -29 104 -234 104 -235 40 0 c22 0 49 -3 61 -6 18 -5
48 33 223 287 112 160 205 298 208 305 5 13 -24 65 -36 63 -3 -1 -136 -14
-296 -30z"/>
<path d="M9831 14130 c-448 -182 -815 -331 -817 -333 -1 -1 -3 -28 -5 -59 l-4
-57 520 -367 c286 -202 530 -373 543 -382 21 -14 26 -13 62 7 21 11 58 24 82
27 l45 6 234 711 234 710 -33 33 c-19 19 -37 34 -40 34 -4 -1 -373 -149 -821
-330z"/>
<path d="M10992 14427 c-9 -11 86 -214 462 -983 l474 -969 44 -6 c24 -3 55 -9
69 -13 26 -7 41 12 417 535 l390 543 -20 29 c-11 16 -23 49 -26 73 -3 31 -11
48 -25 56 -25 13 -1737 739 -1758 745 -8 2 -21 -2 -27 -10z"/>
<path d="M10839 14363 c-24 -4 -35 -34 -257 -707 -128 -387 -232 -708 -232
-714 0 -6 9 -16 20 -22 27 -15 68 -87 75 -136 l7 -40 663 -191 664 -190 32 33
33 34 -173 352 c-95 194 -308 631 -474 971 -211 432 -306 617 -317 616 -8 -1
-27 -4 -41 -6z"/>
<path d="M4801 14209 c-83 -71 -151 -132 -151 -135 0 -3 5 -24 11 -48 l10 -42
306 -98 306 -97 22 23 22 23 -105 233 -105 232 -44 0 c-24 0 -61 9 -83 20
l-39 20 -150 -131z"/>
<path d="M8329 13523 l-287 -116 -6 -44 c-7 -50 -28 -97 -61 -133 l-23 -25
244 -815 c134 -448 251 -839 259 -867 14 -47 19 -53 43 -53 15 0 47 -9 71 -20
l43 -20 32 26 c17 15 338 290 714 612 680 583 683 586 675 616 -9 34 -10 99
-3 133 4 18 -61 68 -490 370 -272 192 -517 364 -544 382 l-48 33 -51 -23 c-87
-41 -193 -24 -251 40 -11 12 -22 21 -25 21 -3 -1 -135 -53 -292 -117z"/>
<path d="M5545 13468 c-22 -11 -41 -21 -42 -23 -2 -1 -33 -214 -69 -474 l-66
-473 35 -29 c73 -60 97 -168 57 -251 -18 -37 -18 -44 -6 -62 49 -72 964 -1181
976 -1183 8 -2 20 0 27 5 8 5 13 225 19 833 l7 825 -33 14 c-86 36 -133 109
-129 201 l2 59 -364 290 c-200 159 -366 289 -369 289 -3 0 -23 -9 -45 -21z"/>
<path d="M13060 13468 c-14 -5 -51 -7 -82 -4 l-57 6 -382 -533 c-210 -292
-386 -537 -391 -543 -5 -7 0 -29 12 -55 11 -24 20 -56 20 -71 0 -26 6 -28 418
-163 229 -75 528 -173 664 -218 l246 -81 39 35 c34 31 61 46 113 62 12 4 24
78 58 373 24 203 45 381 48 395 4 22 0 28 -24 38 -74 31 -116 111 -110 212 l3
67 -263 246 c-145 135 -268 246 -275 245 -7 0 -23 -5 -37 -11z"/>
<path d="M7195 13065 l-450 -183 -6 -49 c-3 -26 -11 -61 -18 -78 -11 -27 -10
-31 11 -46 13 -10 383 -303 823 -653 620 -492 803 -632 812 -623 9 9 -47 209
-245 872 l-257 860 -50 5 c-56 6 -114 32 -141 61 -9 10 -20 19 -23 18 -3 -1
-208 -84 -456 -184z"/>
<path d="M13893 12689 c-21 -6 -33 -16 -33 -27 0 -9 -20 -186 -45 -392 -24
-206 -40 -376 -35 -378 5 -2 26 -16 48 -32 76 -55 105 -171 62 -254 -10 -22
-16 -44 -12 -51 4 -6 144 -176 311 -378 260 -313 307 -365 322 -357 10 6 27
10 38 10 11 0 22 8 25 18 2 9 39 224 82 477 74 442 76 460 58 470 -10 5 -35
26 -55 46 -47 48 -66 114 -52 180 l10 49 -335 313 c-184 171 -339 313 -346
314 -6 1 -26 -3 -43 -8z"/>
<path d="M6604 12648 c-19 -9 -22 -21 -27 -145 -4 -75 -7 -448 -7 -829 l0
-694 33 -13 c17 -8 49 -33 69 -55 l38 -42 777 191 c428 105 778 192 779 192 1
1 6 22 12 47 10 39 9 47 -6 61 -35 34 -1633 1299 -1640 1298 -4 0 -16 -5 -28
-11z"/>
<path d="M10383 12608 l-42 -43 133 -450 c73 -247 154 -522 181 -611 l47 -161
52 0 c28 0 66 -8 84 -17 l32 -16 447 411 c247 227 451 415 455 418 4 3 -1 35
-11 71 l-18 65 -654 187 c-360 103 -656 187 -659 188 -3 0 -25 -19 -47 -42z"/>
<path d="M9389 11969 c-393 -337 -712 -617 -710 -623 3 -6 9 -34 15 -63 l10
-52 606 -289 c505 -242 607 -288 620 -277 57 48 165 64 225 33 l31 -16 189
175 c105 96 188 180 186 186 -22 66 -24 100 -8 151 10 29 26 61 37 71 11 10
20 25 20 33 0 14 -358 1234 -363 1237 -1 1 -27 8 -57 17 -30 8 -62 18 -71 22
-12 5 -209 -158 -730 -605z"/>
<path d="M12142 12138 c-7 -7 -12 -18 -12 -26 0 -7 120 -217 267 -465 l267
-453 55 1 c38 0 70 -7 101 -22 l44 -23 51 35 c27 20 169 122 315 228 l265 193
-3 49 c-2 28 -7 53 -10 56 -4 4 -298 102 -654 218 -356 116 -654 214 -661 216
-7 3 -18 0 -25 -7z"/>
<path d="M5363 12070 c4 -25 16 -145 28 -267 l22 -222 40 -17 c130 -59 160
-222 61 -333 l-45 -50 153 -533 154 -533 43 -6 43 -6 227 271 c125 149 230
276 234 282 3 6 -1 32 -9 59 -16 54 -11 100 16 155 l18 35 -488 598 c-268 329
-491 601 -495 605 -4 4 -5 -13 -2 -38z"/>
<path d="M11394 11663 c-247 -228 -448 -419 -447 -426 2 -7 8 -35 15 -64 19
-85 -21 -178 -95 -218 -20 -11 -37 -26 -37 -33 0 -7 47 -173 106 -370 58 -196
114 -387 125 -424 19 -65 21 -67 57 -74 53 -10 105 -38 135 -73 l25 -30 77 14
c92 18 92 18 100 53 9 41 63 102 109 123 50 23 121 24 171 4 l37 -16 281 274
c155 151 328 319 385 373 l104 99 -16 37 c-9 21 -16 54 -16 75 0 39 30 115 55
144 13 14 -16 67 -251 468 l-267 452 -51 -6 c-38 -5 -64 -2 -102 13 l-50 19
-450 -414z"/>
<path d="M14860 11776 l-35 -13 -77 -459 c-42 -252 -77 -464 -77 -470 -1 -6
16 -23 38 -37 48 -32 91 -113 91 -172 0 -56 -45 -144 -89 -173 -19 -12 -51
-27 -73 -32 -21 -6 -38 -12 -38 -14 0 -2 -31 -196 -70 -432 -38 -236 -70 -437
-70 -447 0 -10 7 -20 16 -24 17 -6 45 22 836 806 l418 413 -17 51 c-14 42 -15
59 -5 106 11 54 11 56 -16 85 -60 67 -787 821 -792 823 -3 1 -21 -4 -40 -11z"/>
<path d="M13240 11302 l-315 -229 3 -71 c3 -61 0 -78 -20 -114 l-24 -43 331
-485 330 -485 61 3 c69 4 123 -14 168 -56 37 -35 66 -97 66 -143 0 -35 2 -37
68 -66 37 -17 122 -57 189 -88 l121 -58 29 21 c15 11 47 25 70 32 33 10 43 19
47 39 12 59 136 835 136 851 0 10 -16 28 -35 40 -53 33 -88 100 -89 169 0 34
6 69 17 90 9 19 17 38 17 43 0 5 -138 176 -307 379 -290 349 -308 370 -332
362 -50 -15 -124 -9 -169 15 -23 12 -44 22 -45 22 -2 0 -144 -103 -317 -228z"/>
<path d="M5178 10834 l-160 -326 26 -48 c38 -71 43 -125 16 -188 -26 -61 -74
-106 -128 -122 l-38 -12 -27 -421 c-15 -232 -27 -432 -27 -444 0 -12 9 -27 20
-33 17 -9 63 27 369 285 l349 295 -1 67 c-1 79 22 134 74 177 l31 27 -153 534
c-131 454 -157 535 -172 535 -14 0 -56 -76 -179 -326z"/>
<path d="M7502 10967 c-768 -190 -773 -191 -770 -215 3 -22 69 -54 667 -323
366 -165 673 -301 683 -305 11 -3 31 5 51 20 18 14 49 32 68 40 l36 15 72 434
72 433 -47 47 c-26 26 -49 47 -53 46 -3 -1 -354 -87 -779 -192z"/>
<path d="M10438 10784 l-188 -175 15 -29 c8 -16 15 -51 15 -77 -1 -80 -35
-136 -118 -193 l-21 -15 94 -649 c51 -357 98 -653 103 -658 6 -6 18 -8 28 -6
10 1 136 166 285 372 l267 369 -19 41 c-35 77 -19 155 46 225 l43 46 -132 444
-131 443 -35 13 c-19 7 -42 15 -50 18 -10 4 -77 -52 -202 -169z"/>
<path d="M12430 10637 c-91 -90 -261 -256 -379 -370 -214 -206 -214 -206 -202
-235 7 -17 14 -49 16 -73 l3 -44 415 -168 415 -168 26 26 c36 36 103 65 151
65 46 0 119 -31 155 -65 l25 -24 183 51 c161 46 182 54 182 72 0 12 11 41 25
64 14 24 22 49 18 55 -12 20 -646 952 -652 959 -3 4 -27 2 -53 -4 -37 -9 -56
-8 -96 6 -28 9 -54 16 -59 16 -4 0 -82 -73 -173 -163z"/>
<path d="M15177 10037 l-618 -612 15 -40 c30 -80 13 -149 -56 -218 l-47 -47
195 -803 c237 -975 211 -877 234 -877 21 0 26 8 189 298 l103 182 -21 49 c-38
89 -23 162 48 233 36 36 57 49 89 54 32 5 44 12 47 28 14 56 115 570 112 571
-31 15 -80 64 -96 98 -57 119 8 266 135 299 24 7 46 19 49 28 4 13 275 1359
275 1367 0 30 -135 -97 -653 -610z"/>
<path d="M6677 10633 c-2 -5 80 -169 181 -365 l185 -358 39 0 c55 0 106 -24
149 -71 l38 -41 395 93 c369 87 396 94 396 114 0 14 -10 26 -27 35 -169 78
-1337 600 -1343 600 -5 0 -11 -3 -13 -7z"/>
<path d="M15927 10623 c-3 -4 -66 -315 -141 -690 l-137 -682 49 -48 c27 -26
51 -55 54 -63 4 -12 81 -5 519 44 283 32 515 59 516 60 2 2 13 22 26 47 l24
44 -432 645 c-417 622 -458 676 -478 643z"/>
<path d="M9857 9748 l-186 -501 29 -41 c29 -40 39 -71 43 -131 2 -29 7 -32
202 -111 l200 -81 39 39 c21 21 42 38 46 38 7 0 -174 1277 -182 1285 -2 3 -88
-221 -191 -497z"/>
<path d="M4468 9852 c-261 -262 -305 -310 -298 -327 5 -11 9 -44 9 -73 l1 -52
213 -106 213 -107 44 32 c23 17 51 31 61 31 10 0 20 4 24 9 3 6 16 175 30 378
13 202 27 400 30 439 4 56 3 73 -8 77 -9 3 -129 -110 -319 -301z"/>
<path d="M7675 9796 l-390 -93 -6 -34 c-15 -93 -92 -164 -193 -181 -16 -2 -43
-64 -137 -316 l-116 -314 34 -51 c19 -29 36 -53 37 -55 2 -1 106 4 232 13 126
8 241 15 255 15 21 0 28 6 32 28 17 78 95 143 181 150 l53 4 227 435 c218 415
227 436 216 464 -7 16 -18 29 -24 28 -6 0 -186 -42 -401 -93z"/>
<path d="M11796 9791 l-27 -28 40 -178 c23 -98 41 -179 41 -180 0 -1 12 -5 28
-8 110 -24 183 -164 139 -269 l-16 -37 602 -655 c331 -360 603 -652 604 -648
1 4 -78 333 -175 731 -171 698 -178 725 -202 731 -80 22 -141 82 -160 159 -7
28 -10 58 -7 65 3 8 0 16 -6 19 -7 3 -192 77 -411 166 -220 89 -404 161 -411
161 -6 0 -24 -13 -39 -29z"/>
<path d="M4096 9288 c-22 -15 -57 -31 -78 -34 l-38 -7 -34 -111 c-19 -61 -78
-254 -131 -429 l-97 -319 25 -26 c34 -37 50 -70 56 -116 l6 -39 283 -75 283
-75 35 41 c20 24 53 48 79 58 25 9 45 17 45 18 0 0 31 156 68 346 l67 345 -42
40 c-45 44 -68 105 -61 163 l4 34 -215 107 -216 108 -39 -29z"/>
<path d="M16275 9089 c-275 -32 -500 -58 -501 -59 0 0 -6 -18 -13 -39 l-11
-40 52 -49 c29 -27 113 -103 187 -169 l133 -121 34 14 c76 32 189 4 238 -58
l23 -30 126 38 c126 38 127 39 127 69 1 72 70 160 144 185 23 7 38 19 41 33 3
12 11 51 18 87 l13 65 -27 23 c-15 12 -37 42 -49 67 -12 25 -25 44 -28 44 -4
-1 -232 -28 -507 -60z"/>
<path d="M14241 8811 l-121 -289 25 -38 c48 -70 52 -118 20 -220 -5 -16 51
-92 285 -385 161 -200 299 -371 307 -379 12 -13 14 -13 9 0 -7 21 -386 1585
-386 1593 0 36 -35 -36 -139 -282z"/>
<path d="M9681 8926 c-12 -13 -40 -31 -61 -41 -31 -14 -41 -25 -45 -49 -10
-58 -153 -1161 -150 -1164 1 -1 167 216 368 484 l367 486 -16 30 c-9 17 -19
51 -23 76 l-6 46 -195 78 c-107 43 -199 78 -205 78 -7 0 -22 -11 -34 -24z"/>
<path d="M12000 8938 c0 -2 114 -309 254 -683 l254 -680 36 -7 c53 -11 89 -32
124 -72 l31 -36 210 51 209 50 7 38 c3 21 12 50 20 64 14 26 9 31 -561 652
-506 550 -584 634 -584 623z"/>
<path d="M15672 8868 c-6 -6 -32 -16 -58 -23 l-48 -12 -60 -293 c-46 -226 -57
-295 -47 -298 22 -7 81 -64 95 -91 39 -75 28 -161 -30 -237 l-35 -46 56 -237
c31 -130 61 -255 67 -279 7 -28 15 -42 24 -40 8 2 116 216 240 477 l225 474
-25 26 c-54 56 -71 147 -40 219 l15 37 -49 45 c-289 262 -320 288 -330 278z"/>
<path d="M7153 8671 c-133 -9 -243 -18 -245 -21 -3 -3 -11 -20 -18 -39 -7 -18
-24 -46 -38 -62 l-23 -29 213 -614 c129 -373 215 -608 219 -598 4 9 66 293
139 630 l133 613 -43 36 c-23 20 -49 52 -56 70 -8 18 -20 32 -27 32 -6 -1
-121 -9 -254 -18z"/>
<path d="M9855 8076 l-371 -492 23 -44 c13 -24 23 -51 23 -59 0 -14 36 -22
218 -50 119 -18 226 -35 237 -38 15 -3 28 7 51 39 25 35 50 54 112 85 4 1 82
1047 79 1049 -1 1 -169 -220 -372 -490z"/>
<path d="M16565 8482 l-120 -37 -8 -55 c-7 -51 -6 -56 20 -81 80 -77 686 -619
689 -616 7 7 -260 719 -271 722 -81 21 -103 32 -140 66 -23 21 -44 39 -46 38
-2 0 -58 -17 -124 -37z"/>
<path d="M7620 8508 c0 -7 -259 -1205 -265 -1228 -3 -9 12 -25 40 -42 37 -22
76 -67 87 -100 2 -4 103 2 225 14 l222 21 16 44 c9 24 28 57 41 73 l25 29
-192 593 c-174 539 -199 614 -199 596z"/>
<path d="M16354 8243 c4 -10 109 -289 235 -621 l228 -603 56 -4 57 -3 104 165
105 166 -20 39 c-16 31 -20 54 -17 102 2 33 8 68 12 78 6 13 -73 89 -369 357
-208 188 -381 341 -387 341 -5 0 -7 -8 -4 -17z"/>
<path d="M15957 7743 l-226 -478 25 -26 c13 -14 33 -48 43 -74 l19 -49 423
-111 c372 -98 425 -110 433 -96 5 9 19 27 32 41 l24 26 -201 529 c-110 292
-216 572 -235 623 l-36 92 -37 0 -37 0 -227 -477z"/>
<path d="M3764 8092 c-10 -15 29 -90 247 -478 142 -252 260 -462 261 -466 2
-4 12 -5 23 -2 17 4 30 48 95 312 l75 307 -46 45 c-44 42 -50 53 -74 146 -2 9
-531 155 -560 154 -6 0 -15 -8 -21 -18z"/>
<path d="M4665 7774 c-22 -13 -54 -24 -72 -24 -29 0 -33 -4 -42 -37 -5 -21
-40 -161 -77 -312 l-66 -273 33 -32 34 -33 398 186 398 186 -3 39 -3 39 -275
143 c-151 79 -277 143 -280 143 -3 -1 -23 -12 -45 -25z"/>
<path d="M12928 7417 c-208 -51 -208 -51 -208 -78 0 -15 -4 -39 -9 -52 -9 -23
11 -47 255 -313 146 -159 271 -290 277 -291 33 -7 36 12 43 348 l7 336 -27 7
c-15 4 -49 27 -75 51 -27 25 -50 45 -52 44 -2 0 -97 -24 -211 -52z"/>
<path d="M13433 7391 l-52 -26 0 -330 -1 -330 48 -21 47 -20 241 208 c133 115
247 214 253 222 8 10 7 22 -4 49 -8 20 -15 49 -15 65 0 27 -7 31 -223 120
-123 51 -227 91 -232 91 -6 -1 -33 -14 -62 -28z"/>
<path d="M9503 7335 l-16 -33 235 -408 235 -408 57 3 c46 2 68 -3 111 -25 l54
-27 343 188 c189 104 348 193 355 199 7 7 9 25 5 50 l-7 39 -259 124 c-232
110 -261 122 -275 109 -29 -26 -89 -46 -138 -46 -92 0 -170 60 -198 152 l-12
43 -204 32 c-112 17 -219 34 -237 37 -30 4 -34 2 -49 -29z"/>
<path d="M4930 7172 l-354 -167 488 -9 c268 -4 490 -6 492 -3 3 3 -12 61 -33
128 l-39 124 -42 7 c-50 8 -108 41 -122 69 -6 10 -16 19 -23 18 -7 0 -172 -76
-367 -167z"/>
<path d="M7711 7056 l-214 -21 -13 -39 -14 -39 158 -151 c86 -83 200 -192 253
-243 95 -93 96 -93 128 -82 19 7 59 9 93 6 l59 -5 240 131 239 131 0 41 0 42
-171 83 c-139 67 -175 81 -188 72 -50 -36 -80 -46 -136 -47 -78 0 -143 36
-181 100 -14 25 -29 44 -32 44 -4 -1 -103 -11 -221 -23z"/>
<path d="M13795 6813 c-137 -118 -251 -221 -252 -227 -8 -36 2 -36 516 -34
l502 3 -162 231 -163 231 -37 -10 c-28 -7 -51 -5 -92 7 -30 9 -57 16 -59 16
-1 0 -115 -98 -253 -217z"/>
<path d="M10577 6547 l-348 -192 276 -3 c152 -1 397 -1 544 0 l268 3 -91 159
-91 159 -45 2 c-44 2 -122 34 -135 55 -3 5 -12 10 -18 10 -7 0 -169 -87 -360
-193z"/>
<path d="M8465 6539 c-121 -66 -221 -122 -223 -124 -1 -1 5 -16 15 -34 l18
-31 348 0 c347 0 348 0 342 21 -4 11 -26 63 -51 115 -41 89 -45 94 -74 94 -40
0 -98 25 -130 55 l-25 24 -220 -120z"/>
<path d="M5590 4994 c-197 -53 -302 -241 -286 -514 15 -274 142 -425 366 -438
124 -7 208 19 284 89 99 90 139 209 138 404 -1 161 -38 277 -117 363 -85 94
-244 134 -385 96z"/>
<path d="M7224 4997 c-133 -34 -231 -136 -271 -282 -24 -88 -28 -240 -9 -334
44 -217 163 -330 357 -339 194 -10 327 77 391 255 29 81 37 300 14 396 -33
142 -115 246 -223 287 -70 26 -191 34 -259 17z"/>
<path d="M12090 4999 c-145 -28 -243 -131 -286 -299 -20 -76 -23 -260 -5 -332
34 -145 104 -243 209 -295 52 -26 66 -28 172 -28 105 0 120 2 171 27 114 56
188 164 214 315 36 202 -5 398 -106 508 -86 93 -224 132 -369 104z"/>
<path d="M2660 4804 l0 -206 208 3 c203 4 208 5 264 32 69 34 97 75 105 152 7
68 -15 134 -58 169 -54 46 -114 56 -326 56 l-193 0 0 -206z"/>
<path d="M2660 4251 l0 -211 213 0 c222 0 263 6 318 43 55 37 74 81 74 168 0
65 -4 81 -27 116 -17 26 -45 49 -75 64 -45 23 -60 24 -275 27 l-228 4 0 -211z"/>
<path d="M8600 4525 l0 -477 198 4 c217 5 267 16 356 77 122 84 184 273 157
481 -16 124 -42 189 -103 256 -94 102 -164 124 -420 131 l-188 5 0 -477z"/>
<path d="M16610 4524 l0 -476 198 4 c173 4 204 7 253 26 184 73 263 208 262
452 0 167 -42 282 -133 363 -90 81 -195 107 -432 107 l-148 0 0 -476z"/>
<path d="M9480 3101 l0 -141 130 0 c144 0 183 10 218 55 26 33 30 111 8 154
-30 57 -57 66 -213 69 l-143 4 0 -141z"/>
<path d="M10640 3089 l0 -151 138 4 c112 2 143 6 168 22 44 27 64 65 64 126 0
118 -51 149 -242 150 l-128 0 0 -151z"/>
<path d="M11760 3101 l0 -141 130 0 c150 0 189 11 220 62 24 40 26 107 5 148
-27 52 -64 64 -217 68 l-138 4 0 -141z"/>
</g>
</svg>
